<svg width="34" height="34" viewBox="0 0 34 34" fill="none" xmlns="http://www.w3.org/2000/svg">
<g clip-path="url(#clip0_232_3925)">
<path d="M17 34C26.3889 34 34 26.3889 34 17C34 7.61116 26.3889 0 17 0C7.61116 0 0 7.61116 0 17C0 26.3889 7.61116 34 17 34Z" fill="url(#paint0_linear_232_3925)"/>
<path d="M25.2758 9.78164L22.2411 25.0883C22.2411 25.0883 21.8161 26.1508 20.6474 25.6394L13.6415 20.2672L11.0915 19.0386L6.80167 17.5976C6.80167 17.5976 6.14425 17.3653 6.07784 16.8539C6.01144 16.3425 6.82159 16.0703 6.82159 16.0703L23.8747 9.3832C23.8747 9.37656 25.2758 8.75899 25.2758 9.78164Z" fill="white"/>
<path d="M13.0953 24.9156C13.0953 24.9156 12.8894 24.8957 12.6371 24.0922C12.3847 23.2886 11.0898 19.0386 11.0898 19.0386L21.3894 12.4976C21.3894 12.4976 21.9871 12.139 21.9606 12.4976C21.9606 12.4976 22.0668 12.564 21.7481 12.8563C21.4293 13.155 13.6597 20.141 13.6597 20.141" fill="#D2E4F0"/>
<path d="M16.3249 22.3258L13.5557 24.8558C13.5557 24.8558 13.3366 25.0218 13.1042 24.9156L13.6354 20.2207" fill="#B5CFE4"/>
</g>
<defs>
<linearGradient id="paint0_linear_232_3925" x1="17" y1="0" x2="17" y2="33.876" gradientUnits="userSpaceOnUse">
<stop stop-color="#41BCE7"/>
<stop offset="1" stop-color="#22A6DC"/>
</linearGradient>
<clipPath id="clip0_232_3925">
<rect width="34" height="34" fill="white"/>
</clipPath>
</defs>
</svg>
