<svg width="15" height="16" viewBox="0 0 15 16" fill="none" xmlns="http://www.w3.org/2000/svg">
<g clip-path="url(#clip0_30_33467)">
<path d="M14.4827 8.40512C14.4825 8.40529 14.4823 8.4055 14.4821 8.40567L11.4918 11.3816C11.2678 11.6045 10.9055 11.6037 10.6825 11.3796C10.4595 11.1556 10.4604 10.7933 10.6844 10.5703L12.6921 8.57232L0.572198 8.57232C0.256123 8.57232 -9.12702e-05 8.3161 -9.12425e-05 8.00003C-9.12149e-05 7.68395 0.256123 7.42774 0.572198 7.42774L12.6921 7.42774L10.6844 5.42976C10.4604 5.2068 10.4595 4.84445 10.6825 4.62043C10.9055 4.39635 11.2679 4.39558 11.4918 4.61849L14.4822 7.59439C14.4823 7.59456 14.4825 7.59476 14.4827 7.59493C14.7068 7.81864 14.7061 8.18216 14.4827 8.40512Z" fill="#010101"/>
</g>
<defs>
<clipPath id="clip0_30_33467">
<rect width="14.6506" height="14.6506" fill="white" transform="matrix(1 8.74228e-08 8.74228e-08 -1 0 15.3253)"/>
</clipPath>
</defs>
</svg>
