<svg width="98" height="98" viewBox="0 0 98 98" fill="none" xmlns="http://www.w3.org/2000/svg">
<path fill-rule="evenodd" clip-rule="evenodd" d="M63.7073 9.73851C62.8068 8.83348 61.674 8.87328 61.0525 8.95612C60.4652 9.03442 59.7615 9.23568 59.0911 9.42741L58.5749 9.57487L58.1552 9.30869C57.5874 8.94823 56.9774 8.561 56.4348 8.32396C55.8228 8.05662 54.7898 7.75244 53.7044 8.32577C52.6398 8.88817 52.2894 9.89493 52.1445 10.5356C52.0127 11.1185 51.9563 11.8475 51.9027 12.5407L51.862 13.0658L51.8585 13.1096L51.4014 13.4878C50.8552 13.9395 50.2884 14.4082 49.8864 14.8499C49.4606 15.3178 48.8041 16.1969 48.9709 17.421C49.1433 18.6869 50.0554 19.3433 50.6253 19.6609C51.1414 19.9486 51.8207 20.2005 52.4538 20.4352L52.8999 20.6009L53.0646 21.0492C53.2982 21.6855 53.5488 22.3683 53.835 22.8869C54.1511 23.4598 54.8042 24.3765 56.0636 24.5498C57.2816 24.7174 58.1562 24.0576 58.6218 23.6296C59.0612 23.2255 59.5276 22.6559 59.9769 22.1069L60.3533 21.6475L60.3968 21.644L60.9192 21.6031C61.609 21.5492 62.3343 21.4926 62.9143 21.36C63.5517 21.2144 64.5533 20.8622 65.1129 19.7922C65.6833 18.7013 65.3807 17.6631 65.1147 17.048C64.8789 16.5026 64.4936 15.8896 64.135 15.3189L63.8701 14.897L64.0168 14.3781C64.2076 13.7043 64.4078 12.9971 64.4857 12.4068C64.5682 11.7822 64.6077 10.6435 63.7073 9.73851Z" fill="#14AE5C"/>
<path d="M41.5185 8.66251C42.9666 9.55223 43.4228 11.4533 42.5376 12.9087C41.8952 13.9648 42.0562 15.3257 42.9271 16.201L43.3281 16.6041C45.74 19.0282 46.6294 22.5895 45.6425 25.8712C45.1514 27.504 43.4363 28.4276 41.8117 27.934C40.1872 27.4404 39.2683 25.7167 39.7593 24.0838C40.0907 22.9819 39.7921 21.786 38.9822 20.972L38.5812 20.5689C35.7027 17.6758 35.1705 13.1776 37.2938 9.68673C38.179 8.23135 40.0705 7.77279 41.5185 8.66251Z" fill="#14AE5C"/>
<path d="M87.5008 55.6933C86.0187 55.042 84.2952 55.3156 83.0849 56.3942C79.7691 59.3494 74.9439 59.8406 71.1059 57.6135L70.2338 57.1074C68.764 56.2545 68.2604 54.3655 69.109 52.8883C69.9576 51.411 71.837 50.9049 73.3068 51.7578L74.1789 52.2638C75.7259 53.1615 77.6708 52.9635 79.0072 51.7724C82.0099 49.0963 86.286 48.4175 89.963 50.0334L91.1573 50.5583C92.7123 51.2417 93.4218 53.0626 92.7418 54.6256C92.0619 56.1885 90.2501 56.9015 88.6951 56.2182L87.5008 55.6933Z" fill="#14AE5C"/>
<path d="M52.7026 29.3273C51.8443 28.4647 50.4528 28.4647 49.5945 29.3273C48.7362 30.19 48.7362 31.5886 49.5945 32.4512C50.4528 33.3138 51.8443 33.3138 52.7026 32.4512C53.5608 31.5886 53.5608 30.19 52.7026 29.3273Z" fill="#14AE5C"/>
<path fill-rule="evenodd" clip-rule="evenodd" d="M92.0698 36.2676C93.1181 38.5487 92.4107 41.1384 90.4966 43.0621C89.3867 44.1777 87.8994 44.683 86.5748 44.9197C85.2198 45.1619 83.7875 45.1666 82.5327 45.0859C81.2656 45.0044 80.1037 44.8304 79.2637 44.6786C78.8415 44.6024 78.4952 44.5308 78.251 44.4774C78.1289 44.4507 78.0319 44.4285 77.9635 44.4124L77.8826 44.3932L77.8589 44.3874L77.8514 44.3856L77.8467 44.3844C77.1089 44.2009 76.5329 43.6219 76.3503 42.8803L78.339 42.3857C76.3503 42.8803 76.3491 42.8757 76.3491 42.8757L76.3473 42.8681L76.3415 42.8443L76.3224 42.763C76.3064 42.6942 76.2843 42.5968 76.2578 42.474C76.2047 42.2286 76.1334 41.8806 76.0576 41.4562C75.9066 40.6119 75.7335 39.4441 75.6524 38.1706C75.5721 36.9094 75.5767 35.4698 75.8177 34.108C76.0533 32.7767 76.556 31.2818 77.6659 30.1662C79.5799 28.2425 82.1565 27.5314 84.426 28.5851C86.1476 29.3843 87.2674 31.0018 87.6891 32.988C89.6652 33.4119 91.2746 34.5373 92.0698 36.2676Z" fill="#14AE5C"/>
<g opacity="0.5">
<path d="M72.54 19.7664C74.1968 20.0926 75.2714 21.6793 74.94 23.3104L74.3526 26.2015C73.5443 30.1804 70.6322 33.4278 66.7218 34.7109C64.8946 35.3105 63.5338 36.8279 63.1561 38.6872L62.5687 41.5783C62.2374 43.2093 60.6256 44.2671 58.9687 43.9409C57.3118 43.6147 56.2373 42.028 56.5686 40.3969L57.156 37.5058C57.9644 33.527 60.8765 30.2796 64.7868 28.9964C66.614 28.3968 67.9748 26.8794 68.3525 25.0202L68.9399 22.1291C69.2713 20.498 70.8831 19.4402 72.54 19.7664Z" fill="#14AE5C"/>
<path d="M28.6409 16.6309C29.4953 15.7897 30.8807 15.7897 31.7352 16.6309C32.5897 17.4721 32.5897 18.8359 31.7352 19.6771C30.8807 20.5182 29.4953 20.5182 28.6409 19.6771C27.7864 18.8359 27.7864 17.4721 28.6409 16.6309Z" fill="#14AE5C"/>
</g>
<path opacity="0.7" d="M80.4142 62.5858C79.6332 61.8047 78.3668 61.8047 77.5858 62.5858C76.8047 63.3668 76.8047 64.6332 77.5858 65.4142C78.3668 66.1953 79.6332 66.1953 80.4142 65.4142C81.1953 64.6332 81.1953 63.3668 80.4142 62.5858Z" fill="#14AE5C"/>
<path opacity="0.2" d="M69.5858 41.5858C70.3668 40.8047 71.6332 40.8047 72.4142 41.5858C73.1953 42.3668 73.1953 43.6332 72.4142 44.4142C71.6332 45.1953 70.3668 45.1953 69.5858 44.4142C68.8047 43.6332 68.8047 42.3668 69.5858 41.5858Z" fill="#14AE5C"/>
<path opacity="0.5" d="M16.1245 64.673L23.0032 44.037L23.0032 44.0369C26.122 34.6806 27.6814 30.0025 31.3711 29.1315C35.0609 28.2604 38.5478 31.7473 45.5216 38.7211L59.2789 52.4784L59.2789 52.4785C66.2527 59.4522 69.7396 62.9391 68.8685 66.6289C67.9975 70.3186 63.3193 71.878 53.963 74.9968L33.327 81.8755L33.327 81.8755C22.0678 85.6285 16.4383 87.5051 13.4666 84.5334C10.4949 81.5617 12.3715 75.9321 16.1245 64.673Z" fill="#14AE5C"/>
<path d="M36.4128 31.0564L36.6229 30.0571C34.992 29.1165 33.554 28.7907 32.0844 29.1317C31.4852 29.2707 30.9411 29.5067 30.4369 29.843L33.3262 30.4297C31.3409 30.0266 30.6664 29.8894 30.4369 29.843C30.3887 29.8752 30.3403 29.9086 30.2928 29.9426L30.2708 30.0496C30.2409 30.196 30.1976 30.41 30.1431 30.6853C30.0341 31.2358 29.8801 32.0319 29.6983 33.0236C29.3349 35.0057 28.8591 37.7756 28.4086 40.9317C27.5161 47.1844 26.6894 55.1735 27.1153 61.5577C27.373 65.4207 28.1906 70.2128 28.9202 73.9573C29.2885 75.8472 29.641 77.5034 29.9017 78.6879C30.0321 79.2806 30.1397 79.7561 30.215 80.0849L30.3027 80.4647L30.3262 80.5652L30.3343 80.5993C30.3343 80.5996 30.335 80.6026 33.3656 79.9094L30.3343 80.5993L30.9025 83C31.9088 82.6739 32.9662 82.3274 34.0774 81.9633L36.8328 81.0605L36.3897 79.1887L36.3686 79.0984L36.286 78.7408C36.2142 78.4272 36.1104 77.9687 35.9841 77.3947C35.7314 76.246 35.3892 74.6384 35.0322 72.8065C34.3114 69.1073 33.5563 64.6235 33.325 61.1574C32.9431 55.4323 33.6892 47.9616 34.5713 41.7817C35.0082 38.7215 35.4702 36.0319 35.8228 34.1086C35.999 33.1475 36.1475 32.3795 36.2516 31.854C36.3036 31.5912 36.3444 31.3893 36.372 31.2543L36.4032 31.1028L36.4108 31.0662L36.4128 31.0564Z" fill="#14AE5C"/>
<path d="M54 75.4354L48.0963 77.3698L47.7129 76.2361L50.6657 75.2714C47.7129 76.2361 47.713 76.2365 47.7129 76.2361L47.7091 76.2248L47.7008 76.2001L47.6713 76.1113C47.6461 76.0351 47.6101 75.9253 47.5647 75.7849C47.4741 75.5042 47.3461 75.1006 47.1933 74.5988C46.8881 73.5966 46.4814 72.1949 46.0741 70.5914C45.2772 67.4545 44.4086 63.2853 44.4086 59.8115C44.4086 56.3377 45.2772 52.1685 46.0741 49.0316C46.4814 47.4282 46.8881 46.0264 47.1933 45.0243C47.3461 44.5224 47.4741 44.1189 47.5647 43.8382C47.6101 43.6977 47.6461 43.5879 47.6713 43.5117L47.7008 43.423L47.7091 43.3982L47.7116 43.3909C47.7117 43.3905 47.7129 43.3869 50.6657 44.3516L47.7129 43.3869L48.5912 40.7894L53.5153 45.6298C53.5092 45.6486 53.5029 45.6682 53.4963 45.6886C53.4149 45.9407 53.2971 46.312 53.155 46.7785C52.8704 47.7131 52.4908 49.0219 52.1118 50.5138C51.336 53.5676 50.6317 57.1283 50.6317 59.8115C50.6317 62.4947 51.336 66.0555 52.1118 69.1093C52.4908 70.6012 52.8704 71.91 53.155 72.8445C53.2971 73.311 53.4149 73.6824 53.4963 73.9344C53.5369 74.0604 53.5685 74.1565 53.5894 74.2195L53.6125 74.289L53.6176 74.3045L54 75.4354Z" fill="#14AE5C"/>
</svg>
