<svg width="34" height="34" viewBox="0 0 34 34" fill="none" xmlns="http://www.w3.org/2000/svg">
<g clip-path="url(#clip0_232_3909)">
<mask id="mask0_232_3909" style="mask-type:luminance" maskUnits="userSpaceOnUse" x="0" y="0" width="34" height="34">
<path d="M34 0H0V34H34V0Z" fill="white"/>
</mask>
<g mask="url(#mask0_232_3909)">
<path d="M17 34C7.6126 34 0 26.3874 0 17C0 7.6126 7.6126 0 17 0C26.3874 0 34 7.6126 34 17C34 26.3874 26.3874 34 17 34Z" fill="url(#paint0_linear_232_3909)"/>
<path d="M16.9998 7.48678C20.0972 7.48678 20.4644 7.49698 21.6884 7.55478C22.8206 7.60578 23.436 7.79618 23.844 7.95598C24.3846 8.16678 24.7722 8.41838 25.1768 8.82298C25.5814 9.22758 25.833 9.61518 26.0438 10.1558C26.2036 10.5638 26.3906 11.1792 26.445 12.3114C26.4994 13.5354 26.513 13.9026 26.513 17C26.513 20.0974 26.5028 20.4646 26.445 21.6886C26.394 22.8208 26.2036 23.4362 26.0438 23.8442C25.833 24.3848 25.5814 24.7724 25.1768 25.177C24.7722 25.5816 24.3846 25.8332 23.844 26.044C23.436 26.2038 22.8206 26.3908 21.6884 26.4452C20.4644 26.4996 20.0972 26.5132 16.9998 26.5132C13.9024 26.5132 13.5352 26.503 12.3112 26.4452C11.179 26.3942 10.5636 26.2038 10.1556 26.044C9.61501 25.8332 9.22741 25.5816 8.82281 25.177C8.41821 24.7724 8.16661 24.3848 7.95581 23.8442C7.79601 23.4362 7.60901 22.8208 7.55461 21.6886C7.50021 20.4646 7.48661 20.0974 7.48661 17C7.48661 13.9026 7.49681 13.5354 7.55461 12.3114C7.60561 11.1792 7.79601 10.5638 7.95581 10.1558C8.16661 9.61518 8.41821 9.22758 8.82281 8.82298C9.22741 8.41838 9.61501 8.16678 10.1556 7.95598C10.5636 7.79618 11.179 7.60918 12.3112 7.55478C13.5352 7.49698 13.9024 7.48678 16.9998 7.48678ZM16.9998 5.39578C13.848 5.39578 13.4536 5.40938 12.216 5.46718C10.9818 5.52498 10.1386 5.71878 9.39741 6.00778C8.63581 6.30018 7.98641 6.69798 7.34381 7.34398C6.69781 7.98998 6.30341 8.63598 6.00421 9.40098C5.71861 10.1388 5.52141 10.982 5.46361 12.2196C5.40581 13.4572 5.39221 13.8516 5.39221 17.0034C5.39221 20.1552 5.40581 20.5496 5.46361 21.7872C5.52141 23.0214 5.71521 23.8646 6.00421 24.6058C6.30001 25.364 6.69781 26.0134 7.34381 26.656C7.98981 27.302 8.63581 27.6964 9.40081 27.9956C10.1386 28.2812 10.9818 28.4784 12.2194 28.5362C13.457 28.594 13.8514 28.6076 17.0032 28.6076C20.155 28.6076 20.5494 28.594 21.787 28.5362C23.0212 28.4784 23.8644 28.2846 24.6056 27.9956C25.3638 27.6998 26.0132 27.302 26.6558 26.656C27.3018 26.01 27.6962 25.364 27.9954 24.599C28.281 23.8612 28.4782 23.018 28.536 21.7804C28.5938 20.5428 28.6074 20.1484 28.6074 16.9966C28.6074 13.8448 28.5938 13.4504 28.536 12.2128C28.4782 10.9786 28.2844 10.1354 27.9954 9.39418C27.6996 8.63598 27.3018 7.98658 26.6558 7.34398C26.0098 6.69798 25.3638 6.30358 24.5988 6.00438C23.861 5.71878 23.0178 5.52158 21.7802 5.46378C20.546 5.40938 20.1516 5.39578 16.9998 5.39578Z" fill="white"/>
<path d="M17.0013 11.0398C13.7101 11.0398 11.0411 13.7088 11.0411 17C11.0411 20.2912 13.7101 22.9602 17.0013 22.9602C20.2925 22.9602 22.9615 20.2912 22.9615 17C22.9615 13.7088 20.2925 11.0398 17.0013 11.0398ZM17.0013 20.8692C14.8661 20.8692 13.1321 19.1386 13.1321 17C13.1321 14.8614 14.8661 13.1308 17.0013 13.1308C19.1365 13.1308 20.8705 14.8614 20.8705 17C20.8705 19.1386 19.1365 20.8692 17.0013 20.8692Z" fill="white"/>
<path d="M23.193 12.1992C23.9629 12.1992 24.587 11.5751 24.587 10.8052C24.587 10.0353 23.9629 9.41122 23.193 9.41122C22.4231 9.41122 21.799 10.0353 21.799 10.8052C21.799 11.5751 22.4231 12.1992 23.193 12.1992Z" fill="white"/>
</g>
</g>
<defs>
<linearGradient id="paint0_linear_232_3909" x1="4.97918" y1="29.0208" x2="29.0208" y2="4.97918" gradientUnits="userSpaceOnUse">
<stop stop-color="#FFD521"/>
<stop offset="0.0551048" stop-color="#FFD020"/>
<stop offset="0.1241" stop-color="#FEC01E"/>
<stop offset="0.2004" stop-color="#FCA71B"/>
<stop offset="0.2821" stop-color="#FA8316"/>
<stop offset="0.3681" stop-color="#F85510"/>
<stop offset="0.4563" stop-color="#F51E09"/>
<stop offset="0.5" stop-color="#F30005"/>
<stop offset="0.5035" stop-color="#F20007"/>
<stop offset="0.5966" stop-color="#E1003B"/>
<stop offset="0.6879" stop-color="#D30067"/>
<stop offset="0.7757" stop-color="#C70088"/>
<stop offset="0.8589" stop-color="#BF00A0"/>
<stop offset="0.9357" stop-color="#BB00AF"/>
<stop offset="1" stop-color="#B900B4"/>
</linearGradient>
<clipPath id="clip0_232_3909">
<rect width="34" height="34" fill="white"/>
</clipPath>
</defs>
</svg>
