<svg width="16" height="16" viewBox="0 0 16 16" fill="none" xmlns="http://www.w3.org/2000/svg">
<g clip-path="url(#clip0_9_829)">
<path d="M14.9274 8.63449C14.9273 8.63467 14.9271 8.63487 14.9269 8.63504L11.9366 11.6109C11.7126 11.8339 11.3502 11.833 11.1272 11.609C10.9043 11.385 10.9051 11.0226 11.1291 10.7997L13.1368 8.80169L1.01696 8.80169C0.700886 8.80169 0.444672 8.54547 0.444672 8.2294C0.444672 7.91332 0.700886 7.65711 1.01696 7.65711L13.1368 7.65711L11.1292 5.65913C10.9051 5.43617 10.9043 5.07382 11.1273 4.8498C11.3502 4.62572 11.7126 4.62495 11.9366 4.84786L14.9269 7.82376C14.9271 7.82393 14.9273 7.82413 14.9275 7.8243C15.1516 8.04801 15.1509 8.41153 14.9274 8.63449Z" fill="#FCFCFC"/>
</g>
<defs>
<clipPath id="clip0_9_829">
<rect width="14.6506" height="14.6506" fill="white" transform="matrix(1 8.74228e-08 8.74228e-08 -1 0.444763 15.5547)"/>
</clipPath>
</defs>
</svg>
