<svg width="34" height="34" viewBox="0 0 34 34" fill="none" xmlns="http://www.w3.org/2000/svg">
<g clip-path="url(#clip0_232_3918)">
<mask id="mask0_232_3918" style="mask-type:luminance" maskUnits="userSpaceOnUse" x="0" y="0" width="34" height="34">
<path d="M34 0H0V34H34V0Z" fill="white"/>
</mask>
<g mask="url(#mask0_232_3918)">
<path d="M17 34C7.6126 34 0 26.3874 0 17C0 7.6126 7.6126 0 17 0C26.3874 0 34 7.6126 34 17C34 26.3874 26.3874 34 17 34Z" fill="#25D366"/>
<path fill-rule="evenodd" clip-rule="evenodd" d="M24.951 9.08482C22.843 6.97342 20.0346 5.81062 17.046 5.80722C10.8885 5.80722 5.87354 10.8188 5.87354 16.9796C5.87354 18.9482 6.38694 20.8726 7.36614 22.5658L5.78174 28.356L11.7046 26.8022C13.3366 27.693 15.1726 28.1622 17.0426 28.1622H17.046C23.2034 28.1622 28.215 23.1506 28.2184 16.9898C28.2218 14.0046 27.0624 11.1962 24.951 9.08482ZM17.0494 26.2752H17.046C15.38 26.2752 13.7446 25.8264 12.32 24.9798L11.98 24.7792L8.46434 25.7006L9.40274 22.2734L9.18174 21.9232C8.25354 20.4442 7.76054 18.7374 7.76054 16.9796C7.76394 11.8592 11.929 7.69422 17.0528 7.69422C19.5348 7.69422 21.8638 8.66322 23.6182 10.4176C25.3726 12.172 26.3382 14.5078 26.3348 16.9864C26.3348 22.1102 22.1664 26.2752 17.0494 26.2752ZM22.1426 19.3188C21.8638 19.1794 20.4902 18.5028 20.2352 18.411C19.9802 18.3192 19.7932 18.2716 19.6062 18.5504C19.4192 18.8292 18.8854 19.4582 18.7222 19.6452C18.559 19.8322 18.3958 19.856 18.117 19.7166C17.8382 19.5772 16.9372 19.2814 15.873 18.3294C15.0434 17.5882 14.4824 16.6736 14.3192 16.3948C14.156 16.116 14.3022 15.963 14.4416 15.8236C14.5674 15.6978 14.7204 15.4972 14.8598 15.334C14.9992 15.1708 15.0468 15.0552 15.1386 14.8682C15.2304 14.6812 15.1862 14.518 15.1148 14.3786C15.0434 14.2392 14.4858 12.8656 14.2546 12.3046C14.0268 11.7606 13.799 11.8354 13.6256 11.8252C13.4624 11.8184 13.2754 11.815 13.0918 11.815C12.9048 11.815 12.6022 11.8864 12.3472 12.1652C12.0922 12.444 11.3714 13.1206 11.3714 14.4942C11.3714 15.8678 12.371 17.1972 12.5104 17.3808C12.6498 17.5678 14.479 20.3864 17.2806 21.5968C17.947 21.8858 18.4672 22.0558 18.8718 22.185C19.5416 22.3992 20.1502 22.3686 20.6296 22.2972C21.1668 22.2156 22.282 21.6206 22.5132 20.9712C22.7444 20.3184 22.7444 19.7608 22.6764 19.6452C22.6084 19.5296 22.4214 19.4616 22.1426 19.3188Z" fill="white"/>
</g>
</g>
<defs>
<clipPath id="clip0_232_3918">
<rect width="34" height="34" fill="white"/>
</clipPath>
</defs>
</svg>
