<svg width="98" height="99" viewBox="0 0 98 99" fill="none" xmlns="http://www.w3.org/2000/svg">
<path opacity="0.5" d="M32.9996 9.10401C32.5658 9.10394 32.2281 9.10389 31.9086 9.12414C27.8555 9.38101 24.3064 12.058 22.7918 16.0006C22.6697 16.3183 22.5612 16.6581 22.4162 17.1135C22.0976 18.0108 21.3666 19.0313 20.3429 19.8468C20.2289 19.9376 20.1145 20.0233 20 20.104L27.4225 20.1033C27.5328 19.8651 27.6345 19.6229 27.7268 19.377L27.7327 19.3631L27.7487 19.3235L27.7673 19.275L27.7848 19.2271L27.7987 19.1873L27.8055 19.1673L27.8217 19.1183L27.8364 19.0731L27.8444 19.0481L27.8548 19.0147L27.8634 18.9866L27.8702 18.9635C28.0186 18.4983 28.0671 18.3533 28.1112 18.2385C28.7996 16.4464 30.4129 15.2296 32.2552 15.1128C32.3785 15.105 32.5296 15.1037 33.0777 15.1037H43.9237C44.4717 15.1037 44.6229 15.105 44.7462 15.1128C46.5885 15.2296 48.2017 16.4464 48.8902 18.2385C48.9336 18.3516 48.9798 18.4913 49.1303 18.9633L49.137 18.9862L49.1456 19.0145L49.1561 19.0479L49.1641 19.073L49.1787 19.118L49.1949 19.1669L49.2017 19.1869L49.2155 19.2266L49.2329 19.2742L49.2514 19.3222L49.2671 19.3613L49.2732 19.3758C49.3656 19.6221 49.4675 19.8647 49.578 20.1033L57 20.104C56.8856 20.0233 56.7713 19.9376 56.6574 19.8469C55.634 19.0316 54.903 18.0111 54.5844 17.1137L54.5728 17.0774C54.4357 16.6468 54.3289 16.3113 54.2096 16.0006C52.695 12.058 49.1458 9.38101 45.0928 9.12414C44.7733 9.10389 44.4356 9.10394 44.0017 9.10401H32.9996Z" fill="#14AE5C"/>
<path fill-rule="evenodd" clip-rule="evenodd" d="M58.4905 20.104H18.5095C12.0131 20.104 8.76485 20.104 6.2858 21.3655C4.12883 22.4631 2.37388 24.2072 1.2694 26.3508C0 28.8144 0 32.0424 0 38.4985C0 40.1398 0 40.9604 0.282453 41.6523C0.529113 42.2564 0.92704 42.7879 1.43847 43.1963C2.02411 43.664 2.81505 43.8998 4.39693 44.3714L25.025 50.5214V55.1613C25.025 58.0906 26.7936 60.7909 29.5943 61.9217L31.7507 62.7924C36.0818 64.5412 40.9182 64.5412 45.2493 62.7924L47.4057 61.9217C50.2064 60.7909 51.975 58.0906 51.975 55.1613V50.5214L72.6031 44.3714C74.1849 43.8998 74.9759 43.664 75.5615 43.1963C76.073 42.7879 76.4709 42.2564 76.7175 41.6523C77 40.9604 77 40.1398 77 38.4985C77 32.0424 77 28.8144 75.7306 26.3508C74.6261 24.2072 72.8712 22.4631 70.7142 21.3655C68.2351 20.104 64.9869 20.104 58.4905 20.104ZM44.66 46.8866H32.34C31.4895 46.8866 30.8 47.5826 30.8 48.4411V55.1613C30.8 55.797 31.1834 56.3686 31.7681 56.6047L33.9245 57.4754C36.8617 58.6614 40.1383 58.6614 43.0755 57.4754L45.2319 56.6047C45.8166 56.3686 46.2 55.797 46.2 55.1613V48.4411C46.2 47.5826 45.5105 46.8866 44.66 46.8866Z" fill="#14AE5C"/>
<path opacity="0.5" d="M4 44.104C4.17041 44.1556 4.35158 44.21 4.54457 44.2678L25.0834 50.4269V55.0736C25.0834 58.0071 26.8444 60.7114 29.6329 61.8439L31.78 62.7159C36.0923 64.4672 40.9079 64.4672 45.2202 62.7159L47.3673 61.8439C50.1558 60.7114 51.9168 58.0071 51.9168 55.0736V50.4269L72.4556 44.2678C72.6485 44.21 72.8296 44.1557 73 44.1041V47.936C72.9966 62.0187 72.8663 76.2447 67.9477 80.6149C62.8952 85.104 54.7635 85.104 38.5 85.104C22.2365 85.104 14.1048 85.104 9.05233 80.6149C4.13374 76.2447 4.00345 62.0187 4 47.936V44.104Z" fill="#14AE5C"/>
</svg>
