<svg width="98" height="99" viewBox="0 0 98 99" fill="none" xmlns="http://www.w3.org/2000/svg">
<path opacity="0.5" d="M49 65.7749L33.537 81.7943C31.3226 84.0884 30.2153 85.2355 29.2776 85.6325C27.1409 86.537 24.7707 85.7629 23.6467 83.7935C23.1535 82.9292 22.9998 81.3703 22.6924 78.2525C22.5188 76.4922 22.432 75.612 22.1686 74.8748C21.5788 73.2245 20.3396 71.9406 18.7465 71.3297C18.0349 71.0568 17.1853 70.9669 15.4862 70.787L15.4861 70.787C12.4767 70.4686 10.9719 70.3093 10.1377 69.7983C8.23664 68.6339 7.48945 66.1784 8.36256 63.9648C8.74571 62.9934 9.85295 61.8463 12.0674 59.5521L22.1686 49.0875L27.2452 44.0081L49 65.7749L70.7548 44.0081L75.8314 49.0875L85.9326 59.5521C88.147 61.8463 89.2543 62.9934 89.6374 63.9648C90.5105 66.1784 89.7634 68.6339 87.8623 69.7983C87.0281 70.3093 85.5233 70.4686 82.5138 70.787C80.8147 70.9668 79.9651 71.0568 79.2535 71.3297C77.6604 71.9406 76.4212 73.2245 75.8314 74.8748C75.568 75.612 75.4812 76.4921 75.3077 78.2523L75.3076 78.2525C75.0002 81.3703 74.8465 82.9292 74.3533 83.7935C73.2293 85.7629 70.8591 86.537 68.7224 85.6325C67.7847 85.2355 66.6774 84.0884 64.463 81.7943L49 65.7749Z" fill="#14AE5C"/>
<path fill-rule="evenodd" clip-rule="evenodd" d="M48.5 65.0081C64.2401 65.0081 77 52.2482 77 36.5081C77 20.7679 64.2401 8.00806 48.5 8.00806C32.7599 8.00806 20 20.7679 20 36.5081C20 52.2482 32.7599 65.0081 48.5 65.0081ZM48.5 24.2938C47.3435 24.2938 46.5699 25.6815 45.0228 28.4569L44.6225 29.1749C44.1829 29.9636 43.9631 30.3579 43.6203 30.6181C43.2776 30.8783 42.8507 30.9749 41.997 31.168L41.2197 31.3439C38.2154 32.0237 36.7132 32.3635 36.3559 33.5128C35.9985 34.662 37.0225 35.8596 39.0707 38.2546L39.6006 38.8742C40.1826 39.5548 40.4736 39.8951 40.6045 40.3161C40.7354 40.7371 40.6914 41.1912 40.6034 42.0992L40.5233 42.9259C40.2137 46.1214 40.0589 47.7192 40.9945 48.4295C41.9302 49.1397 43.3366 48.4922 46.1496 47.197L46.8773 46.8619C47.6767 46.4939 48.0763 46.3098 48.5 46.3098C48.9237 46.3098 49.3233 46.4939 50.1227 46.8619L50.8504 47.197C53.6634 48.4922 55.0699 49.1397 56.0055 48.4295C56.9411 47.7192 56.7863 46.1214 56.4767 42.9259L56.3966 42.0992C56.3086 41.1912 56.2646 40.7371 56.3955 40.3161C56.5264 39.8951 56.8174 39.5548 57.3994 38.8743L57.9293 38.2546C59.9774 35.8596 61.0015 34.662 60.6442 33.5128C60.2868 32.3635 58.7846 32.0236 55.7803 31.3439L55.003 31.168C54.1493 30.9749 53.7224 30.8783 53.3797 30.6181C53.0369 30.3579 52.8171 29.9636 52.3775 29.1749L51.9772 28.4569C50.4301 25.6815 49.6565 24.2938 48.5 24.2938Z" fill="#14AE5C"/>
</svg>
